<svg width="84" height="45" viewBox="0 0 84 45" fill="none" xmlns="http://www.w3.org/2000/svg">
<path d="M1.86426 21V5.97755H10.9254V7.77677H3.96697V12.3074H10.145V14.0849H3.96697V21H1.86426ZM13.5074 5.97755H15.6101V21H13.5074V5.97755ZM29.3656 5.97755V7.79845H24.6399V21H22.5372V7.79845H17.8116V5.97755H29.3656Z" fill="#2C332F"/>
<path d="M6.79987 39.8014C9.03375 39.8014 10.1507 39.0372 10.1507 37.5088C10.1507 37.0385 10.0478 36.6417 9.84206 36.3183C9.651 35.9803 9.38647 35.6937 9.04844 35.4586C8.71042 35.2087 8.32097 34.9956 7.88007 34.8193C7.45387 34.6429 6.99828 34.4666 6.51329 34.2902C5.95482 34.0992 5.42574 33.8861 4.92606 33.6509C4.42638 33.4011 3.99283 33.1145 3.62542 32.7912C3.258 32.4531 2.96407 32.0563 2.74362 31.6007C2.53787 31.1451 2.43499 30.594 2.43499 29.9474C2.43499 28.61 2.89059 27.5665 3.80177 26.817C4.71296 26.0675 5.96952 25.6927 7.57144 25.6927C8.49732 25.6927 9.33503 25.7956 10.0846 26.0013C10.8488 26.1924 11.4072 26.4055 11.76 26.6407L11.0766 28.3822C10.7679 28.1911 10.305 28.0074 9.68775 27.8311C9.08519 27.64 8.37975 27.5445 7.57144 27.5445C7.15994 27.5445 6.77783 27.5886 6.42511 27.6768C6.07239 27.7649 5.76376 27.8972 5.49923 28.0736C5.23469 28.2499 5.02159 28.4777 4.85993 28.757C4.71296 29.0215 4.63948 29.3375 4.63948 29.7049C4.63948 30.1164 4.72031 30.4618 4.88197 30.741C5.04363 31.0202 5.27143 31.2701 5.56536 31.4905C5.85929 31.6963 6.19731 31.8873 6.57942 32.0637C6.97623 32.24 7.40978 32.4164 7.88007 32.5928C8.54141 32.8573 9.14397 33.1218 9.68775 33.3864C10.2462 33.6509 10.7239 33.9669 11.1207 34.3343C11.5322 34.7017 11.8481 35.1426 12.0686 35.657C12.289 36.1567 12.3993 36.7666 12.3993 37.4867C12.3993 38.8241 11.9069 39.8529 10.9223 40.573C9.95228 41.2931 8.57816 41.6532 6.79987 41.6532C6.19731 41.6532 5.63884 41.6091 5.12446 41.5209C4.62478 41.4474 4.17654 41.3593 3.77973 41.2564C3.38292 41.1388 3.03755 41.0212 2.74362 40.9037C2.46439 40.7714 2.24394 40.6612 2.08228 40.573L2.72158 38.8094C3.0596 39.0005 3.57398 39.2136 4.26472 39.4487C4.95545 39.6838 5.80051 39.8014 6.79987 39.8014ZM25.1903 26.0454V27.8972H20.3845V41.3225H18.2461V27.8972H13.4404V26.0454H25.1903ZM33.1359 41.6532C32.1365 41.6532 31.2694 41.4989 30.5346 41.1902C29.7998 40.8816 29.1972 40.4628 28.7269 39.9337C28.2566 39.3899 27.9039 38.7506 27.6688 38.0158C27.4483 37.281 27.3381 36.4873 27.3381 35.6349V26.0454H29.4764V35.3924C29.4764 36.9209 29.8144 38.0305 30.4905 38.7212C31.1665 39.412 32.0483 39.7573 33.1359 39.7573C33.6796 39.7573 34.172 39.6765 34.6129 39.5148C35.0685 39.3385 35.4579 39.0739 35.7813 38.7212C36.1046 38.3685 36.3544 37.9203 36.5308 37.3765C36.7071 36.818 36.7953 36.1567 36.7953 35.3924V26.0454H38.9337V35.6349C38.9337 36.4873 38.8161 37.281 38.5809 38.0158C38.3605 38.7506 38.0078 39.3899 37.5228 39.9337C37.0525 40.4628 36.4499 40.8816 35.7151 41.1902C34.995 41.4989 34.1352 41.6532 33.1359 41.6532ZM55.1692 33.673C55.1692 34.9956 54.9634 36.1493 54.5519 37.134C54.1404 38.104 53.5599 38.9123 52.8104 39.5589C52.0608 40.1909 51.1644 40.6685 50.1209 40.9918C49.0774 41.3005 47.9311 41.4548 46.6819 41.4548C46.0646 41.4548 45.3813 41.4254 44.6317 41.3666C43.8969 41.3225 43.2282 41.227 42.6257 41.08V26.2659C43.2282 26.1189 43.8969 26.0234 44.6317 25.9793C45.3813 25.9205 46.0646 25.8911 46.6819 25.8911C47.9311 25.8911 49.0774 26.0528 50.1209 26.3761C51.1644 26.6847 52.0608 27.1624 52.8104 27.809C53.5599 28.441 54.1404 29.2493 54.5519 30.234C54.9634 31.2039 55.1692 32.3503 55.1692 33.673ZM46.8583 39.581C48.8864 39.581 50.4001 39.0666 51.3995 38.0378C52.3989 36.9944 52.8985 35.5394 52.8985 33.673C52.8985 31.8065 52.3989 30.3589 51.3995 29.3301C50.4001 28.2867 48.8864 27.7649 46.8583 27.7649C46.2557 27.7649 45.7854 27.7723 45.4474 27.787C45.1241 27.8017 44.8963 27.8164 44.764 27.8311V39.5148C44.8963 39.5295 45.1241 39.5442 45.4474 39.5589C45.7854 39.5736 46.2557 39.581 46.8583 39.581ZM58.3412 26.0454H60.4796V41.3225H58.3412V26.0454ZM63.6442 33.673C63.6442 32.365 63.8353 31.2113 64.2174 30.2119C64.6142 29.2125 65.1432 28.3822 65.8046 27.7208C66.4806 27.0448 67.2596 26.5378 68.1413 26.1998C69.0378 25.8617 69.9858 25.6927 70.9851 25.6927C71.9698 25.6927 72.8957 25.8617 73.7628 26.1998C74.6446 26.5378 75.4161 27.0448 76.0775 27.7208C76.7388 28.3822 77.2606 29.2125 77.6427 30.2119C78.0395 31.2113 78.2379 32.365 78.2379 33.673C78.2379 34.9809 78.0395 36.1346 77.6427 37.134C77.2606 38.1334 76.7388 38.9711 76.0775 39.6471C75.4161 40.3084 74.6446 40.8081 73.7628 41.1462C72.8957 41.4842 71.9698 41.6532 70.9851 41.6532C69.9858 41.6532 69.0378 41.4842 68.1413 41.1462C67.2596 40.8081 66.4806 40.3084 65.8046 39.6471C65.1432 38.9711 64.6142 38.1334 64.2174 37.134C63.8353 36.1346 63.6442 34.9809 63.6442 33.673ZM65.8928 33.673C65.8928 34.5988 66.0103 35.4439 66.2455 36.2081C66.4806 36.9576 66.8113 37.5969 67.2375 38.126C67.6784 38.6551 68.2075 39.0666 68.8247 39.3605C69.4567 39.6398 70.1621 39.7794 70.941 39.7794C71.72 39.7794 72.418 39.6398 73.0353 39.3605C73.6526 39.0666 74.1743 38.6551 74.6005 38.126C75.0414 37.5969 75.3794 36.9576 75.6145 36.2081C75.8497 35.4439 75.9673 34.5988 75.9673 33.673C75.9673 32.7471 75.8497 31.9094 75.6145 31.1598C75.3794 30.3956 75.0414 29.749 74.6005 29.2199C74.1743 28.6908 73.6526 28.2867 73.0353 28.0074C72.418 27.7135 71.72 27.5665 70.941 27.5665C70.1621 27.5665 69.4567 27.7135 68.8247 28.0074C68.2075 28.2867 67.6784 28.6908 67.2375 29.2199C66.8113 29.749 66.4806 30.3956 66.2455 31.1598C66.0103 31.9094 65.8928 32.7471 65.8928 33.673Z" fill="#2C332F"/>
<path d="M79.9595 12.8208C79.9595 14.693 78.724 16.2772 76.5347 17.6079L76.0835 17.8706L76.0776 17.8745L75.5952 18.1265C73.1403 19.3587 70.0715 20.1899 66.4058 20.6353L65.8452 20.7026L65.8452 17.8628L66.2642 17.7935C68.9565 17.3494 71.0497 16.6704 72.5698 15.7759L72.856 15.5913C74.2305 14.669 74.7935 13.7473 74.7935 12.8501C74.7934 12.2271 74.5262 11.6011 73.9097 10.9644C73.2855 10.3393 72.3904 9.76489 71.2017 9.25342C70.0144 8.74263 68.5946 8.33138 66.937 8.02295L66.938 8.02197C65.3304 7.73391 63.6531 7.59034 61.9058 7.59033C58.8716 7.59033 56.2326 7.96419 53.981 8.70166L53.5356 8.854L53.5337 8.85498C51.6077 9.53299 50.3489 10.3009 49.647 11.1157L67.5278 11.1157L67.5278 13.1733C67.5278 14.3343 66.9568 15.3897 65.9331 16.3335L65.9331 16.3325C65.0856 17.1506 63.9604 17.8733 62.5737 18.5093L61.9614 18.7778L61.9575 18.7798C60.2787 19.462 58.3528 19.9897 56.1851 20.3667C54.0148 20.7442 51.7547 20.9321 49.4058 20.9321C46.9666 20.9321 44.6607 20.7339 42.4888 20.3364C40.3633 19.9587 38.4574 19.4111 36.7769 18.688C35.0996 17.9663 33.7639 17.1213 32.7944 16.1411C31.8175 15.1533 31.2837 14.0631 31.2837 12.8794C31.2838 10.8945 32.7225 9.24639 35.2319 7.88623C37.7631 6.49475 40.9716 5.57045 44.8374 5.09521L45.3979 5.02588L45.3979 7.8667L44.979 7.93603C42.282 8.38089 40.1872 9.07145 38.6675 9.98681L38.6655 9.98779C37.0893 10.9297 36.4508 11.9039 36.4507 12.8794C36.4507 13.4797 36.715 14.0961 37.3345 14.7358C38.0066 15.4024 38.9256 15.9958 40.1099 16.5054C41.2969 17.0161 42.693 17.4179 44.3032 17.7065C45.9107 17.9947 47.6113 18.1401 49.4058 18.1401C51.1097 18.1401 52.7201 18.0046 54.2368 17.7358L54.2446 17.7349C55.8101 17.4847 57.2104 17.1204 58.4478 16.645L58.4478 16.644C59.5897 16.1704 60.4899 15.6306 61.1636 15.0327C61.6147 14.6324 61.922 14.2275 62.1099 13.8208L43.7153 13.8208L43.7153 12.6743C43.7153 11.5078 44.2504 10.4275 45.2251 9.44189L45.2319 9.43603L45.2378 9.43017C46.2515 8.47474 47.608 7.66177 49.2856 6.97998L49.2866 6.97998C50.9658 6.27808 52.8911 5.73972 55.0581 5.36279C57.2289 4.98524 59.5119 4.79736 61.9058 4.79736C64.2996 4.79737 66.5605 4.98586 68.687 5.36377L68.689 5.36377C70.8584 5.76097 72.786 6.31949 74.4663 7.04248C76.1419 7.76345 77.476 8.59743 78.4448 9.55615L78.4487 9.56006C79.4256 10.5479 79.9595 11.6372 79.9595 12.8208Z" fill="url(#paint0_linear_2004_14)" stroke="black"/>
<defs>
<linearGradient id="paint0_linear_2004_14" x1="55.6216" y1="5.29736" x2="55.6216" y2="20.4325" gradientUnits="userSpaceOnUse">
<stop stop-color="#49A9FF"/>
<stop offset="1" stop-color="#FC7CD9"/>
</linearGradient>
</defs>
</svg>
